# xmcd CD database file
#
# Track frame offsets:
#	150
#	24250
#	51352
#	71627
#	91055
#	115077
#	142880
#	163910
#
# Disc length: 2424 seconds
#
# Revision: 8
# Processed by: cddbd v1.5.2PL0 Copyright (c) Steve Scherf et al.
# Submitted via: CDex 2.05
#
DISCID=63097608
DTITLE=Grover Washington, Jr. - The Best Is Yet To Come
DYEAR=1982
DGENRE=Jazz
TTITLE0=Can You Dig It
TTITLE1=The Best Is Yet To Come
TTITLE2=More Than Meets The Eye
TTITLE3=Things Are Getting Better
TTITLE4=Mixty Motions
TTITLE5=Brazilian Memories
TTITLE6=I'll Be With You
TTITLE7=Cassie's Theme (Theme From "Cassie and Co.")
EXTD=YEAR: 1982
EXTT0=
EXTT1=
EXTT2=
EXTT3=
EXTT4=
EXTT5=
EXTT6=
EXTT7=
PLAYORDER=
